PathFileType	4	(X/Y/Z)	Patient4_TMGait_0pt3_02_left_01.trc.trc
DataRate	CameraRate	NumFrames	NumMarkers	Units	OrigDataRate	OrigDataStartFrame	OrigNumFrames
51.282051282051	51.282051282051	5	33	mm	51.282051282051	53	       141
Frame#	Time	Sacral			L.Shoulder			Chest			R.Shoulder			Neck			R.ASIS			L.ASIS			R.Thigh.Superior			R.Thigh.Lateral			R.Thigh.Inferior			R.Patella			L.Thigh.Superior			L.Thigh.Lateral			L.Thigh.Inferior			L.Patella			L.Shank.Superior			L.Shank.Lateral			L.Shank.Inferior			R.Shank.Superior			R.Shank.Lateral			R.Shank.Inferior			R.Heel			R.Midfoot.Superior			R.Midfoot.Lateral			R.Toe			L.Heel			L.Midfoot.Lateral			L.Midfoot.Superior			L.Toe			L.Elbow			L.Wrist			R.Elbow			R.Wrist			
		X1	Y1	Z1	X2	Y2	Z2	X3	Y3	Z3	X4	Y4	Z4	X5	Y5	Z5	X6	Y6	Z6	X7	Y7	Z7	X8	Y8	Z8	X9	Y9	Z9	X10	Y10	Z10	X11	Y11	Z11	X12	Y12	Z12	X13	Y13	Z13	X14	Y14	Z14	X15	Y15	Z15	X16	Y16	Z16	X17	Y17	Z17	X18	Y18	Z18	X19	Y19	Z19	X20	Y20	Z20	X21	Y21	Z21	X22	Y22	Z22	X23	Y23	Z23	X24	Y24	Z24	X25	Y25	Z25	X26	Y26	Z26	X27	Y27	Z27	X28	Y28	Z28	X29	Y29	Z29	X30	Y30	Z30	X31	Y31	Z31	X32	Y32	Z32	X33	Y33	Z33	

53	2.204000000000	702.623183156861	999.259323167706	450.931651945135	866.490687249200	1423.939780037872	253.361546375798	980.860611313190	1356.037594510935	407.332940877122	913.061263018323	1436.058298631482	584.165361638805	862.564473125909	1488.422877756718	410.717736083692	934.511992273091	932.204568889406	558.846473797354	912.356014670622	954.534165162307	286.218144281084	965.503375350081	726.655728004883	542.934719497879	883.342482892210	622.544580511137	612.577832347720	960.214987584505	558.565925909858	538.091819049234	945.397900595181	450.353037588232	563.767111952151	976.005755966737	750.123035164827	328.914430688615	899.888745173314	623.643378200815	275.428164361704	989.582882596087	555.547412962689	344.250278157354	994.837718330245	481.599245635905	354.551926140613	959.010507162093	407.754167127103	350.225689767044	861.389005852440	300.010452696946	300.860345479130	897.517344464687	187.292984145833	375.497724998215	861.518515638027	390.436152751414	572.361089003692	736.274613036441	364.337943056370	630.163675181454	716.279700349312	253.223673318781	586.624937521833	512.160166320756	204.419316885486	550.699019310138	671.771125870813	135.352425569477	606.607339094249	561.109479012909	145.104793252949	630.733411405257	725.885482940915	30.891836239850	642.027914682892	755.787254447056	39.101353285465	416.501256104112	830.864322805520	36.448375970138	337.158439612279	915.101958697854	95.706939731723	365.861677029303	1043.018377255258	40.792300727111	337.664430782273	824.626665460460	1076.029518585558	134.471875140242	904.461724978769	827.245582847113	153.230929159993	1011.516339054110	1104.938501985610	707.357176877752	1225.855966178559	958.025848852792	726.678862411373	
54	2.223500000000	701.562196281261	996.293246632212	446.411152927266	868.827116536337	1422.191016203048	251.725449325503	980.596332549015	1353.695835909817	407.302313437498	910.121300665319	1432.815981502193	583.535374502965	862.696329262497	1486.197332102088	409.435888332396	932.757068996731	930.479494065269	556.759098730875	913.285581246775	952.377962745340	283.906480516021	970.155852832047	727.187188878258	540.169144998202	891.576444067038	621.179422401016	609.920867135258	970.480366712196	559.023012288564	535.303720405124	957.788936794276	449.495654285840	561.569876360762	977.455719489048	748.244510830186	327.093286051529	902.260399419739	621.287143913379	274.081457001796	991.945795353191	553.676543080161	343.739912781842	997.281602916713	479.225896809630	354.253799008802	959.881158654217	405.202745069889	350.083326409388	860.438797316125	299.113907021006	300.618952837434	893.896352939153	185.995758072161	375.597699930298	872.341137952910	389.964939381794	569.943896484600	745.512449206986	367.386131807399	626.294128073800	723.284638041214	256.482320713554	583.681146697275	518.819562489276	213.513992749289	545.360095449483	675.615123500036	139.749729038994	604.217343492877	564.790321045933	153.409742805083	626.752020538449	725.687277612966	31.161518218345	641.991336837180	749.984725670568	39.188603842506	416.442162523242	825.055290008933	36.459681055478	337.136411425584	909.372884082874	95.569659484142	365.970630168325	1037.221287845016	40.562352850211	337.604491711979	837.902762311229	1073.565918020898	130.705678221134	923.522616510349	826.788122175127	150.222188221067	994.857628841805	1096.819510089698	706.276737456664	1197.193465692322	934.115870782457	729.675381675705	
55	2.243000000000	700.357421525104	993.310199483442	442.172986628212	871.160282289524	1420.435930509568	250.427727938140	980.234484921663	1351.329774053119	407.602715690115	906.968117198263	1429.450696105227	583.198007435006	862.793380584736	1483.924963668501	408.487728163859	930.921873571791	928.786240111715	554.940317553074	914.039168732635	950.127575647008	281.858084635272	974.628303616129	728.003081212337	537.571040867337	899.765806038846	620.122533001364	607.438696870010	980.600221673802	559.960709593364	532.618348970475	970.230808127801	449.236781586821	559.377015575263	978.725599137746	746.275664208523	325.461926863276	904.363575026905	618.878024197830	272.917432570155	994.027748022154	551.719249628223	343.402185771566	999.431360130757	476.813221807980	354.158069553250	960.523270661588	402.640018903101	350.087762450313	859.325869102218	298.193411265836	300.483210427343	890.187083963575	184.696523279273	375.745434482937	883.518915170592	389.804223058332	567.568679087629	755.230751550604	370.058188610331	622.388568858047	731.339754373431	259.288586860589	580.610612957444	526.662477551433	220.706984636645	539.859834121662	681.205243769327	143.654429163085	601.661465445791	570.168775310542	160.327838738813	622.644938821355	728.054301902240	31.721206036386	641.833259329926	744.177507876733	39.264811874192	416.383986367259	819.243879922964	36.464278918069	337.109774799230	903.634935645163	95.423268514134	366.086929694783	1031.416188788649	40.365714295672	337.539642420478	851.333406511726	1071.410598965440	127.395392255755	943.350555566826	827.042010037706	147.800572843886	976.986476363219	1088.972204615198	705.097021515999	1166.017539218597	911.360202010103	731.861196169479	
56	2.262500000000	699.060212006593	990.482251229211	438.216914096213	873.542566136745	1418.826572920834	249.487396882381	979.816271596457	1349.095564800713	408.255619843922	903.622476988353	1426.135324674958	583.149554915650	862.871741116812	1481.755541748640	407.879511156072	929.025922607931	927.266740250400	553.406340068718	914.665339906517	947.913988554628	280.094289065746	978.791722211238	729.197722272573	535.197733107471	907.705071089860	619.516126534797	605.180047117480	990.328060048426	561.474154276986	530.095733883999	982.470461210537	449.715234277060	557.257073993931	979.752016638373	744.283166903940	324.042499947383	906.036219467416	616.531646138060	271.929784687678	995.614040792248	549.733866806545	343.217502801282	1001.037742849404	474.444161458087	354.244329785411	960.732903066699	400.165620317600	350.214670100236	857.910922072616	297.286189595773	300.430168262239	886.328835286199	183.445905073514	375.927257220175	894.889370297715	390.036476205850	565.320863849041	765.326719756264	372.223049299111	618.632228054557	740.493160729542	261.463664772695	577.575811212317	535.716618816925	225.473799561876	534.530218695138	688.784924923348	146.788731943487	599.096810011718	577.455035469172	165.345152801527	618.664679040066	733.510396025631	32.473167619829	641.561906454123	738.360154902312	39.328687159242	416.326920760858	813.428088657245	36.463016603554	337.078324254007	897.885352073805	95.271841409101	366.204498901520	1025.602312775290	40.198977246744	337.473168843237	864.758880483473	1069.757536692870	124.526112214936	963.877157082929	828.296977559471	145.936583121109	958.025458479281	1081.694302875484	703.800314908072	1132.592839927568	890.216349575916	733.175295120273	
57	2.282000000000	697.725632830709	987.992501537235	434.532238849253	876.036231282852	1417.520614781811	248.924214615791	979.385813798090	1347.150171756445	409.284539050547	900.113064185988	1423.056529329143	583.381953225131	862.954300501344	1479.846643052925	407.615449781310	927.074194740659	926.065276238611	552.171483176140	915.218820060681	945.889079885719	278.637177633690	982.535410647877	730.862239234583	533.091878918503	915.212702342519	619.486941452143	603.179960261071	999.446309853968	563.637482152524	527.779742152615	994.280919921758	451.047947733505	555.262785031236	980.467545975384	742.345719978458	322.861343718352	907.120997068363	614.372882171254	271.112051899583	996.492470667977	547.791512750149	343.168580227188	1001.852818148495	472.211315082626	354.488908217934	960.304002882564	397.886702714949	350.435840790636	856.050739268409	296.435680294326	300.434351506531	882.257614423454	182.298477341233	376.127407919304	906.308769941625	390.731286988580	563.269308371430	775.730484951291	373.764371452326	615.207160200155	750.796250519653	262.862558381059	574.740213532034	546.050579039920	227.417452321526	529.709642306952	698.569198656492	148.924341896188	596.690612467964	586.855031778740	168.058341532563	615.070580097747	742.483540048476	33.281414123980	641.203133421228	732.526699891445	39.379073001068	416.270585710014	807.605120532499	36.456757413455	337.041715113434	892.119907690058	95.121553791411	366.315489467317	1019.778109694433	40.059907765604	337.408402565428	878.040521773352	1068.799201997570	122.064934172784	985.009759365441	830.841687223969	144.596943051728	938.143696138811	1075.292775633208	702.375231776503	1097.260492272875	871.121269811563	733.585243427948	
